<svg width="35" height="41" viewBox="0 0 35 41" fill="none" xmlns="http://www.w3.org/2000/svg">
<g filter="url(#filter0_d_189_690)">
<path d="M10.75 25.12L12.775 27.1L24.25 15.88L22.225 13.9L10.75 25.12ZM4 7.3L4 33.7C4 35.5315 5.50188 37 7.375 37L14.125 37C14.125 36.1248 14.4806 35.2854 15.1135 34.6665C15.7465 34.0477 16.6049 33.7 17.5 33.7C18.3951 33.7 19.2535 34.0477 19.8865 34.6665C20.5194 35.2854 20.875 36.1248 20.875 37L27.625 37C29.4981 37 31 35.5315 31 33.7L31 7.3C31 6.42478 30.6444 5.58542 30.0115 4.96655C29.3785 4.34768 28.5201 4 27.625 4L20.875 4C20.875 5.8315 19.3731 7.3 17.5 7.3C16.6049 7.3 15.7464 6.95232 15.1135 6.33345C14.4806 5.71458 14.125 4.87521 14.125 4L7.375 4C6.47989 4 5.62145 4.34768 4.98851 4.96655C4.35558 5.58542 4 6.42479 4 7.3ZM7.375 7.3L11.6612 7.3C12.2525 8.30267 13.1035 9.13539 14.1285 9.71437C15.1534 10.2934 16.3163 10.5982 17.5 10.5982C18.6837 10.5982 19.8466 10.2934 20.8715 9.71437C21.8965 9.13539 22.7475 8.30267 23.3387 7.3L27.625 7.3L27.625 33.7L23.3388 33.7C22.7475 32.6973 21.8965 31.8646 20.8715 31.2856C19.8466 30.7066 18.6837 30.4018 17.5 30.4018C16.3163 30.4018 15.1534 30.7066 14.1285 31.2856C13.1035 31.8646 12.2525 32.6973 11.6613 33.7L7.375 33.7L7.375 7.3ZM10.75 16.375C10.75 17.7445 11.8806 18.85 13.2812 18.85C14.6819 18.85 15.8125 17.7445 15.8125 16.375C15.8125 15.0055 14.6819 13.9 13.2812 13.9C11.8806 13.9 10.75 15.0055 10.75 16.375ZM19.1875 24.625C19.1875 25.9945 20.3181 27.1 21.7187 27.1C23.1194 27.1 24.25 25.9945 24.25 24.625C24.25 23.2555 23.1194 22.15 21.7187 22.15C20.3181 22.15 19.1875 23.2555 19.1875 24.625Z" fill="#0384C7"/>
</g>
<defs>
<filter id="filter0_d_189_690" x="0" y="0" width="35" height="41" filterUnits="userSpaceOnUse" color-interpolation-filters="sRGB">
<feFlood flood-opacity="0" result="BackgroundImageFix"/>
<feColorMatrix in="SourceAlpha" type="matrix" values="0 0 0 0 0 0 0 0 0 0 0 0 0 0 0 0 0 0 127 0" result="hardAlpha"/>
<feOffset/>
<feGaussianBlur stdDeviation="2"/>
<feComposite in2="hardAlpha" operator="out"/>
<feColorMatrix type="matrix" values="0 0 0 0 0 0 0 0 0 0.721569 0 0 0 0 1 0 0 0 0.25 0"/>
<feBlend mode="normal" in2="BackgroundImageFix" result="effect1_dropShadow_189_690"/>
<feBlend mode="normal" in="SourceGraphic" in2="effect1_dropShadow_189_690" result="shape"/>
</filter>
</defs>
</svg>
