<svg width="37" height="44" viewBox="0 0 37 44" fill="none" xmlns="http://www.w3.org/2000/svg">
<g filter="url(#filter0_d_119_6652)">
<path d="M13.1429 9.57129H9.57143C8.62423 9.57129 7.71582 9.94756 7.04605 10.6173C6.37627 11.2871 6 12.1955 6 13.1427V34.5713C6 35.5185 6.37627 36.4269 7.04605 37.0967C7.71582 37.7664 8.62423 38.1427 9.57143 38.1427H27.4286C28.3758 38.1427 29.2842 37.7664 29.954 37.0967C30.6237 36.4269 31 35.5185 31 34.5713V13.1427C31 12.1955 30.6237 11.2871 29.954 10.6173C29.2842 9.94756 28.3758 9.57129 27.4286 9.57129H23.8571" stroke="#0384C7" stroke-width="2.11111" stroke-linecap="round" stroke-linejoin="round"/>
<path d="M22.0716 20.2857H17.6074C16.897 20.2857 16.2156 20.5679 15.7133 21.0702C15.211 21.5726 14.9288 22.2539 14.9288 22.9643C14.9288 23.6747 15.211 24.356 15.7133 24.8583C16.2156 25.3607 16.897 25.6429 17.6074 25.6429H19.3931C20.1035 25.6429 20.7848 25.9251 21.2871 26.4274C21.7894 26.9297 22.0716 27.611 22.0716 28.3214C22.0716 29.0318 21.7894 29.7131 21.2871 30.2155C20.7848 30.7178 20.1035 31 19.3931 31H14.9288M18.5002 31V32.7857M18.5002 18.5V20.2857M13.1431 9.57143C13.1431 8.62423 13.5193 7.71582 14.1891 7.04605C14.8589 6.37627 15.7673 6 16.7145 6H20.2859C21.2331 6 22.1415 6.37627 22.8113 7.04605C23.4811 7.71582 23.8574 8.62423 23.8574 9.57143C23.8574 10.5186 23.4811 11.427 22.8113 12.0968C22.1415 12.7666 21.2331 13.1429 20.2859 13.1429H16.7145C15.7673 13.1429 14.8589 12.7666 14.1891 12.0968C13.5193 11.427 13.1431 10.5186 13.1431 9.57143Z" stroke="#0384C7" stroke-width="2.11111" stroke-linecap="round" stroke-linejoin="round"/>
</g>
<defs>
<filter id="filter0_d_119_6652" x="0.944336" y="0.944336" width="35.1113" height="42.2539" filterUnits="userSpaceOnUse" color-interpolation-filters="sRGB">
<feFlood flood-opacity="0" result="BackgroundImageFix"/>
<feColorMatrix in="SourceAlpha" type="matrix" values="0 0 0 0 0 0 0 0 0 0 0 0 0 0 0 0 0 0 127 0" result="hardAlpha"/>
<feOffset/>
<feGaussianBlur stdDeviation="2"/>
<feComposite in2="hardAlpha" operator="out"/>
<feColorMatrix type="matrix" values="0 0 0 0 0 0 0 0 0 0.721569 0 0 0 0 1 0 0 0 0.5 0"/>
<feBlend mode="normal" in2="BackgroundImageFix" result="effect1_dropShadow_119_6652"/>
<feBlend mode="normal" in="SourceGraphic" in2="effect1_dropShadow_119_6652" result="shape"/>
</filter>
</defs>
</svg>
