<svg width="33" height="42" viewBox="0 0 33 42" fill="none" xmlns="http://www.w3.org/2000/svg">
<g filter="url(#filter0_d_189_688)">
<path d="M13.375 30.2727H7.125V27.1818H13.375V30.2727ZM13.375 24.0909H7.125V21H13.375V24.0909ZM13.375 4V5.54545H7.125C5.39062 5.54545 4 6.92091 4 8.63636V33.3636C4 34.1834 4.32924 34.9696 4.91529 35.5492C5.50134 36.1289 6.2962 36.4545 7.125 36.4545H13.375V38H16.5V4H13.375ZM29 14.8182V33.3636C29 35.0791 27.6094 36.4545 25.875 36.4545H19.625V33.3636H25.875V19.4545H19.625V16.3636H26.6562L19.625 9.40909V5.54545L29 14.8182ZM22.75 24.0909H19.625V21H22.75V24.0909ZM22.75 30.2727H19.625V27.1818H22.75V30.2727Z" fill="#0384C7"/>
</g>
<defs>
<filter id="filter0_d_189_688" x="0" y="0" width="33" height="42" filterUnits="userSpaceOnUse" color-interpolation-filters="sRGB">
<feFlood flood-opacity="0" result="BackgroundImageFix"/>
<feColorMatrix in="SourceAlpha" type="matrix" values="0 0 0 0 0 0 0 0 0 0 0 0 0 0 0 0 0 0 127 0" result="hardAlpha"/>
<feOffset/>
<feGaussianBlur stdDeviation="2"/>
<feComposite in2="hardAlpha" operator="out"/>
<feColorMatrix type="matrix" values="0 0 0 0 0 0 0 0 0 0.721569 0 0 0 0 1 0 0 0 0.25 0"/>
<feBlend mode="normal" in2="BackgroundImageFix" result="effect1_dropShadow_189_688"/>
<feBlend mode="normal" in="SourceGraphic" in2="effect1_dropShadow_189_688" result="shape"/>
</filter>
</defs>
</svg>
